/* XPM */
static char *elfeed[] = {
/* Values */
"24 24 9 1",
/* Colors */
"  c None",
". c #f3ad72",
"+ c #fff1e3",
"@ c #47704c",
"# c #eb7616",
"$ c #eb7818",
"% c white",
"& c #f9d0ae",
"= c #ef8b36",
/* Pixels */
"  $$$$$$$$$$$$$$$$$$$$  ",
" $$$$$$$$$$$$$$$$$$$$$$ ",
"$$$$$$$$$$$$$$$$$$$$$$$$",
"$$$=..$$$$$$$$$$$$$$$$$$",
"$$$.%%%+&.$$$$$$$$$$$$$$",
"$$$.%%%%%%+.$$$$$$$$$$$$",
"$$$.%%%%%%%%+.$$$$$$$$$$",
"$$$$$$.&+%%%%%.$$$$$$$$$",
"$$$$$$$$$.+%%%%.$$$$$$$$",
"$$$.&&.=$$$&%%%%.$$$$$$$",
"$$$.%%%%&=$$.%%%%=$$$$$$",
"$$$.%%%%%%.$$.%%%+$$$$$$",
"$$$.&+%%%%%&$$&%%%.$$$$$",
"$$$$$$=&%%%%.$$+%%+$$$$$",
"$$$$$$$$.+%%%=$.%%%.$$$$",
"$$$$$==$$.%%%&$$+%%&$$$$",
"$$$$&%%&$$&%%%=$&%%+$$$$",
"$$$.%%%%=$=%%%.$.%%%$$$$",
"$$$.%%%%.$$+%%&$=%%%.$$$",
"$$$$&%%&$$$&%%&$$%%%.$$$",
"$$$$$..$$$$....$$...=$$$",
"$$$$$$$$$$$$$$$$$$$$$$$$",
" $$$$$$$$$$$$$$$$$$$$$$ ",
"  $$$$$$$$$$$$$$$$$$$$  "
};
