/* XPM */
static char *cruise[] = {
/* Values */
"24 24 2 1",
/* Colors */
"  c None",
". c black",
/* Pixels */
"                        ",
"                        ",
"            .           ",
"        ........        ",
"        .  ..  .        ",
"        .      .        ",
"      ............      ",
"      .          .      ",
"      . ........ .      ",
"      .          .      ",
"      .    ..    .      ",
"      . ... . .. .      ",
"     ...        ...     ",
"    .   ..    ..   .    ",
"    .    .    ..   .    ",
"     .             .    ",
"     .            .     ",
"     .            .     ",
" ....   ...       .     ",
"            ..        ..",
"    .....      ......   ",
"...       ..            ",
"             ...    ... ",
"                        "
};
