/* XPM */
static char *speech[] = {
/* Values */
"24 24 6 1",
/* Colors */
"  c None",
". c #ececec",
"+ c #cbcbcb",
"@ c #797979",
"# c black",
"$ c white",
/* Pixels */
"                        ",
"                        ",
"                        ",
"                        ",
"           ##########   ",
"          ##$$$$$$.+##  ",
"         #$$$$$$$$$$$## ",
"        ##$$$$$$$$$$$$# ",
"        #+$$$$$$$$$$$$# ",
"        #$$$$$$$$$$$$$# ",
"        ##$$$$$$$$$$$$# ",
"         #@$$$$$$$$$$## ",
"          #+$$$$$$$$##  ",
" #######  ###########   ",
"##########              ",
" #######                ",
"#########               ",
" #######                ",
"#########               ",
" #######                ",
"#########               ",
" #######                ",
"                        ",
"                        "
};
