/* XPM */
static char *speech[] = {
/* Values */
"24 24 3 1",
/* Colors */
"  c None",
". c white",
"+ c black",
/* Pixels */
"                        ",
"                        ",
"                        ",
"                        ",
"                        ",
"            ........    ",
"          ...........   ",
"          ............  ",
"         .............  ",
"         .............  ",
"          ............  ",
"          ...........   ",
"           .........+   ",
" +++++++  ++ +   ++     ",
"++++++++++              ",
" +++++++                ",
"+++++++++               ",
" +++++++                ",
"+++++++++               ",
" +++++++                ",
"+++++++++               ",
" +++++++                ",
"                        ",
"                        "
};
