/* XPM */
static char *magit[] = {
/* Values */
"24 24 118 2",
/* Colors */
"   c None",
".  c #603832",
".. c #785e59",
".+ c #884335",
".@ c #1c0d0b",
".# c #fe4434",
".$ c #1e0000",
".% c #fe2725",
".& c #070000",
".= c #150000",
".- c #2c0000",
".; c #420000",
".> c #fe3027",
"., c #793833",
".' c #fe1f1d",
".) c #210000",
".! c #230000",
".~ c #140000",
".{ c #591b15",
".] c #fe4232",
".^ c #fe3329",
".( c #744e45",
"._ c #2e0000",
".: c #925a54",
".< c #040000",
".[ c #fe3630",
".} c #380f07",
".| c #74342d",
".1 c #784033",
".2 c #8c655f",
".3 c #fe362b",
".4 c #533934",
".5 c #854d46",
".6 c #fe352a",
".7 c #1d0000",
".8 c #490000",
".9 c #fe2321",
".0 c #050000",
".a c #fe3a30",
".b c #88625b",
".c c #533833",
".d c #520000",
".e c #6d4740",
".f c #fe342a",
".g c #fe4030",
".h c #fe2318",
".i c #58302a",
".j c #290000",
".k c #360000",
".l c #fe140c",
".m c #713122",
".n c #573530",
".o c #6a4139",
".p c #43211c",
".q c #fe2422",
".r c #6c4b44",
".s c #70211a",
".t c #683f39",
".u c #180000",
".v c #3f0000",
".w c #fe211f",
".x c #5f3934",
".y c #432f2e",
".z c #400000",
".A c #250000",
".B c #7e3223",
".C c #85473d",
".D c #6c3832",
".E c #644039",
".F c #fe3429",
".G c #440b04",
".H c #fe1c19",
".I c #44120e",
".J c #65302b",
".K c #7f3f32",
".L c #370000",
".M c #652018",
".N c #62312c",
".O c #57312a",
".P c #3e1e18",
".Q c #310000",
".R c #130000",
".S c #7d372e",
".T c #7a372b",
".U c #060000",
".V c #280000",
".W c #6d2a22",
".X c #814238",
".Y c #693532",
".Z c #55302a",
".` c #600100",
"+  c #6e433d",
"+. c #270000",
"++ c #784a45",
"+@ c #3c0000",
"+# c #5d3a34",
"+$ c #030000",
"+% c #391614",
"+& c #540000",
"+= c #3f2d2a",
"+- c #64413a",
"+; c #6c4841",
"+> c #0a0000",
"+, c #350000",
"+' c #59352f",
"+) c #2d0000",
"+! c #0f0000",
"+~ c #5c211b",
"+{ c #fe1d1b",
"+] c #422624",
"+^ c #140504",
"+( c #7f4235",
"+_ c #6b3933",
"+: c #fe453d",
"+< c #68281b",
"+[ c #010000",
"+} c #7b3223",
"+| c #360303",
/* Pixels */
"                                                ",
"                .h.l                            ",
"                                                ",
"                                                ",
"                                                ",
"                    .g                          ",
"                      .]                        ",
"              .H.>      .#+:                    ",
"                          .^.H                  ",
"          .z      .O.$      .6.w                ",
"          .I.x    .P.}        .3+{              ",
"          .T+]    .Z.m          .3.H            ",
"  .,+&.J  +<. .t.n  .m  ...U.c    .3.9          ",
"  .`.d++  .K  .p+=  .+  .e.0+^      .3.9        ",
"    .|.D+ .i.o+(.1+-.4.E+'+#          .6.'      ",
"                      +;                .f.q    ",
"          +%.y.(.r.@+[+[                  .F.%  ",
"      .2  +).!.u+!.&.<+$                    .a.[",
"      +~  .G.V.$.=+!+>+>                        ",
"      .W  +}._.A.7.u.~.R                        ",
"      .5  .B.k._+..).$.$                        ",
"      .s  .X.v.L.Q.-.j.j.b                      ",
"      .:  .C.8.;+@.L+,+|                        ",
"          .S.Y.M.{+_.N                          "
};
