/* XPM */
static char *org_store_link[] = {
/* columns rows colors chars-per-pixel */
"24 24 4 1",
"  c None",
". c #000000",
"+ c #2B5C98",
"@ c #5884BC",
/* pixels */
"                        ",
"                        ",
"          ...           ",
"         .@@@.          ",
"        .@@@@@.         ",
"        .@@@@@.         ",
"        .@@@@@.         ",
"         .@@@.          ",
"      ... ... ...       ",
"     .@@@.   .@@@.      ",
"    .@@@@@. .@@@@@.     ",
"    .@@@@@. .@@@@@.     ",
"    .@@@@@. .@@@@@.     ",
"     .@@@.   .@@@.      ",
"      ...     ...       ",
"         .@@@.          ",
"        .@@@@@.         ",
"        .@@@@@.         ",
"        .@@@@@.         ",
"         .@@@.          ",
"          ...           ",
"                        ",
"                        ",
"                        "
};
