/* XPM */
static char * org_capture_xpm[] = {
"24 24 72 1",
" 	c None",
".	c #E7E7E8",
"+	c #A3A4A7",
"@	c #7F8285",
"#	c #6A6C70",
"$	c #696C6F",
"%	c #7F8184",
"&	c #A4A5A7",
"*	c #E5E5E6",
"=	c #85888A",
"-	c #2A2E33",
";	c #292D32",
">	c #3E4246",
",	c #53565A",
"'	c #54575B",
")	c #636669",
"!	c #D5D6D7",
"~	c #B6B7B9",
"{	c #9C9EA0",
"]	c #E2E3E4",
"^	c #3B3F44",
"/	c #929496",
"(	c #7D7F82",
"_	c #75777A",
":	c #9EA0A3",
"<	c #9A9C9F",
"[	c #939597",
"}	c #D1D2D3",
"|	c #2C2F34",
"1	c #8A8D8F",
"2	c #2B2F34",
"3	c #D6D7D8",
"4	c #626569",
"5	c #3F4247",
"6	c #C2C3C4",
"7	c #373B40",
"8	c #383C40",
"9	c #64676A",
"0	c #C3C4C5",
"a	c #3B3E43",
"b	c #E0E1E1",
"c	c #9B9D9F",
"d	c #464A4E",
"e	c #848689",
"f	c #949698",
"g	c #E6E6E7",
"h	c #A5A7A9",
"i	c #E2E2E3",
"j	c #A4A6A8",
"k	c #7A7D80",
"l	c #404449",
"m	c #46494D",
"n	c #3D4145",
"o	c #66696D",
"p	c #56595D",
"q	c #838588",
"r	c #C8C9CA",
"s	c #6A6D71",
"t	c #E1E1E2",
"u	c #5B5E62",
"v	c #DADBDC",
"w	c #C3C5C6",
"x	c #65676B",
"y	c #393D41",
"z	c #7E8083",
"A	c #7B7E81",
"B	c #D7D7D8",
"C	c #999B9D",
"D	c #7C7F82",
"E	c #75787B",
"F	c #949699",
"G	c #808386",
"                        ",
"        .+@#$%&*        ",
"       =-;>,'>;;)!      ",
"       ~{]    ]{^-/     ",
"                 (;_    ",
"   :&             <;[   ",
"  }|1              (23  ",
"  45     647890     a)  ",
" b-c    /;deed;f    c-g ",
" h;*   6;%    (;0   i;j ",
" kl    )d      m9    n@ ",
" op    7e      q8    '# ",
" #'    7e      r@    ,s ",
" %>    )d            n@ ",
" &;]   0;(          t;h ",
" *;{    f;mqquv     <-g ",
"  4^     wxy79*     a9  ",
"  !2z              A2B  ",
"   [;<            C;f   ",
"    _;D          A;E    ",
"     /2aci    t<a2F     ",
"      39;;n',n;;xB      ",
"        gj@##Gh.        ",
"                        "};
