/* XPM */
static char * org_agenda_xpm[] = {
"24 24 62 1",
" 	c None",
".	c #E7E7E8",
"+	c #A3A4A7",
"@	c #7F8285",
"#	c #6A6C70",
"$	c #696C6F",
"%	c #7F8184",
"&	c #A4A5A7",
"*	c #E5E5E6",
"=	c #85888A",
"-	c #2A2E33",
";	c #292D32",
">	c #3E4246",
",	c #53565A",
"'	c #54575B",
")	c #636669",
"!	c #D5D6D7",
"~	c #B6B7B9",
"{	c #9C9EA0",
"]	c #E2E3E4",
"^	c #3B3F44",
"/	c #929496",
"(	c #7D7F82",
"_	c #75777A",
":	c #9EA0A3",
"<	c #000000",
"[	c #9A9C9F",
"}	c #939597",
"|	c #D1D2D3",
"1	c #2C2F34",
"2	c #8A8D8F",
"3	c #413B3B",
"4	c #413C3C",
"5	c #2B2F34",
"6	c #D6D7D8",
"7	c #626569",
"8	c #3F4247",
"9	c #3B3E43",
"0	c #E0E1E1",
"a	c #9B9D9F",
"b	c #E6E6E7",
"c	c #A5A7A9",
"d	c #E2E2E3",
"e	c #A4A6A8",
"f	c #7A7D80",
"g	c #404449",
"h	c #3D4145",
"i	c #66696D",
"j	c #56595D",
"k	c #6A6D71",
"l	c #E1E1E2",
"m	c #64676A",
"n	c #7E8083",
"o	c #7B7E81",
"p	c #D7D7D8",
"q	c #999B9D",
"r	c #949698",
"s	c #7C7F82",
"t	c #75787B",
"u	c #949699",
"v	c #65676B",
"w	c #808386",
"                        ",
"        .+@#$%&*        ",
"       =-;>,'>;;)!      ",
"       ~{]    ]{^-/     ",
"                 (;_    ",
"   :&     <<      [;}   ",
"  |12 334    444   (56  ",
"  78  3333333444    9)  ",
" 0-a  4433333444    a-b ",
" c;*  4433333444    d;e ",
" fg   44      44     h@ ",
" ij   4444444444     '# ",
" #'   4444444444     ,k ",
" %>   44    4444     h@ ",
" &;]  34444344<<<   l;c ",
" *;{  33   44< < <  [-b ",
"  7^  3333444<<< <  9m  ",
"  !5n 3333444<   < o5p  ",
"   };[        <<< q;r   ",
"    _;s          o;t    ",
"     /59ad    l[95u     ",
"      6m;;h',h;;vp      ",
"        be@##wc.        ",
"                        "};
