/* XPM */
static char * org_node_grep_xpm[] = {
"24 24 130 2",
"  	c None",
". 	c #E7E7E8",
"+ 	c #A3A4A7",
"@ 	c #7F8285",
"# 	c #6A6C70",
"$ 	c #696C6F",
"% 	c #7F8184",
"& 	c #A4A5A7",
"* 	c #E5E5E6",
"= 	c #85888A",
"- 	c #2A2E33",
"; 	c #292D32",
"> 	c #3E4246",
", 	c #53565A",
"' 	c #54575B",
") 	c #636669",
"! 	c #D5D6D7",
"~ 	c #B6B7B9",
"{ 	c #9C9EA0",
"] 	c #E2E3E4",
"^ 	c #3B3F44",
"/ 	c #929496",
"( 	c #7D7F82",
"_ 	c #75777A",
": 	c #9EA0A3",
"< 	c #9A9C9F",
"[ 	c #939597",
"} 	c #D1D2D3",
"| 	c #2C2F34",
"1 	c #8A8D8F",
"2 	c #2B2F34",
"3 	c #D6D7D8",
"4 	c #626569",
"5 	c #3F4247",
"6 	c #5F666F",
"7 	c #5B626B",
"8 	c #3B3E43",
"9 	c #E0E1E1",
"0 	c #9B9D9F",
"a 	c #5E6470",
"b 	c #80858B",
"c 	c #E6E6E7",
"d 	c #A5A7A9",
"e 	c #626972",
"f 	c #656C75",
"g 	c #6B7177",
"h 	c #707A6E",
"i 	c #A0BA39",
"j 	c #A6BF43",
"k 	c #8D9C6A",
"l 	c #E2E2E3",
"m 	c #A4A6A8",
"n 	c #7A7D80",
"o 	c #404449",
"p 	c #8B9D53",
"q 	c #879B50",
"r 	c #99B149",
"s 	c #9BB352",
"t 	c #99AF5D",
"u 	c #7D8773",
"v 	c #3D4145",
"w 	c #66696D",
"x 	c #56595D",
"y 	c #5B636C",
"z 	c #6A7565",
"A 	c #83984F",
"B 	c #96AC4B",
"C 	c #98AF53",
"D 	c #87985D",
"E 	c #829270",
"F 	c #828F76",
"G 	c #8A8E94",
"H 	c #888C93",
"I 	c #505863",
"J 	c #565F69",
"K 	c #5A636D",
"L 	c #5E666F",
"M 	c #757A7E",
"N 	c #7F8E5E",
"O 	c #93A85F",
"P 	c #86946E",
"Q 	c #7D8873",
"R 	c #6A6D71",
"S 	c #687079",
"T 	c #6C7179",
"U 	c #6C736F",
"V 	c #5F656C",
"W 	c #646974",
"X 	c #3C4148",
"Y 	c #999DA1",
"Z 	c #727A82",
"` 	c #757A81",
" .	c #71767D",
"..	c #5D646E",
"+.	c #E1E1E2",
"@.	c #4E545B",
"#.	c #8D9094",
"$.	c #7C8188",
"%.	c #82878D",
"&.	c #85878F",
"*.	c #686D78",
"=.	c #66696E",
"-.	c #6B6F75",
";.	c #8B8D95",
">.	c #878B92",
",.	c #606771",
"'.	c #64676A",
").	c #D3D4D5",
"!.	c #494D52",
"~.	c #82858A",
"{.	c #787D83",
"].	c #A8ABAF",
"^.	c #ACB0B3",
"/.	c #8E9296",
"(.	c #7B7E81",
"_.	c #D7D7D8",
":.	c #2F3338",
"<.	c #999B9E",
"[.	c #81868B",
"}.	c #84888E",
"|.	c #BABCC1",
"1.	c #D6D7D9",
"2.	c #B3B4B6",
"3.	c #393C40",
"4.	c #949698",
"5.	c #7C7F82",
"6.	c #75787B",
"7.	c #949699",
"8.	c #65676B",
"9.	c #808386",
"                                                ",
"                . + @ # $ % & *                 ",
"              = - ; > , ' > ; ; ) !             ",
"              ~ { ]         ] { ^ - /           ",
"                                  ( ; _         ",
"      : &                           < ; [       ",
"    } | 1                             ( 2 3     ",
"    4 5             6 7                 8 )     ",
"  9 - 0           a     b               0 - c   ",
"  d ; *           e     f   g h   i j k l ; m   ",
"  n o               6 7     p q r s t u   v @   ",
"  w x           y     z A B C D E F       ' #   ",
"  # '   G H I J K L M N O P Q             , R   ",
"  % o G H         S T U   V W             v @   ",
"  & X Y         Z `  .    ..            +.; d   ",
"  * @.#.      $.%.&.    *.              < - c   ",
"    =.-.;.G H >.        ,.              8 '.    ",
"    ).!.~.              {.].^./.      (.2 _.    ",
"      [ :.<.                [.}.|.1.2.3.4.      ",
"        _ ; 5.                      ; 6.        ",
"          / 2 8 0 l         +.< 8 2 7.          ",
"            3 '.; ; v ' , v ; ; 8._.            ",
"                c m @ # # 9.d .                 ",
"                                                "};
