/* XPM */
static char * org_store_link_xpm[] = {
"24 24 66 1",
" 	c None",
".	c #E7E7E8",
"+	c #A3A4A7",
"@	c #7F8285",
"#	c #6A6C70",
"$	c #696C6F",
"%	c #7F8184",
"&	c #A4A5A7",
"*	c #E5E5E6",
"=	c #85888A",
"-	c #2A2E33",
";	c #292D32",
">	c #3E4246",
",	c #53565A",
"'	c #54575B",
")	c #636669",
"!	c #D5D6D7",
"~	c #B6B7B9",
"{	c #9C9EA0",
"]	c #E2E3E4",
"^	c #3B3F44",
"/	c #929496",
"(	c #7D7F82",
"_	c #75777A",
":	c #9EA0A3",
"<	c #101917",
"[	c #101818",
"}	c #9A9C9F",
"|	c #939597",
"1	c #D1D2D3",
"2	c #2C2F34",
"3	c #898C8E",
"4	c #111918",
"5	c #101918",
"6	c #2B2F34",
"7	c #D6D7D8",
"8	c #626569",
"9	c #3F4247",
"0	c #3B3E43",
"a	c #E0E1E1",
"b	c #9B9D9F",
"c	c #101817",
"d	c #E6E6E7",
"e	c #A5A7A9",
"f	c #111818",
"g	c #E2E2E3",
"h	c #A4A6A8",
"i	c #7A7D80",
"j	c #404449",
"k	c #3D4145",
"l	c #66696D",
"m	c #56595D",
"n	c #6A6D71",
"o	c #E1E1E2",
"p	c #64676A",
"q	c #7E8083",
"r	c #626567",
"s	c #D7D7D8",
"t	c #999B9D",
"u	c #949698",
"v	c #7C7F82",
"w	c #7B7E81",
"x	c #75787B",
"y	c #949699",
"z	c #65676B",
"A	c #808386",
"                        ",
"        .+@#$%&*        ",
"       =-;>,'>;;)!      ",
"       ~{]    ]{^-/     ",
"                 (;_    ",
"   :&    <[       };|   ",
"  123   45[4       (67  ",
"  89 <445<<4444     0)  ",
" a-b 4<444 44c54    b-d ",
" e;* f44[5<4f44     g;h ",
" ij     4  44<       k@ ",
" lm     4  4 444[[   '# ",
" #'     4    4  4[4  ,n ",
" %>    44         4  k@ ",
" &;]  <[<         4 o;e ",
" *;{  4[          4 }-d ",
"  8^  4[          4 0p  ",
"  !6q 4[          4r6s  ",
"   |;             t;u   ",
"    _;v          w;x    ",
"     /60bg    o}06y     ",
"      7p;;k',k;;zs      ",
"        dh@##Ae.        ",
"                        "};
