/* XPM */
static char *org_node_find[] = {
/* columns rows colors chars-per-pixel */
"24 24 5 1",
"  c None",
". c #000000",
"+ c #2B5C98",
"@ c #5884BC",
"# c #8CA8CC",
/* pixels */
"                        ",
"         ......         ",
"       ..@@@@@@..       ",
"      .@@@@@@@@@@.      ",
"     .@@@@@@@@@@@@.     ",
"    .@@@@@@@@@@@@@@.    ",
"    .@@@@@@@@@@@@@@.    ",
"    .@@@@@@@@@@@@@@.    ",
"     .@@@@@@@@@@@@.     ",
"      .@@@@@@@@@@.      ",
"       ..@@@@@@...      ",
"         ......@.       ",
"              .@.       ",
"        .++.  .@.       ",
"       .+@@.  .@.       ",
"      .+@##.   .        ",
"     .+@##.             ",
"    .+@##.              ",
"   .+@##.               ",
"  .+@##.                ",
"  .+##.                 ",
"   ..                   ",
"                        ",
"                        "
};
