/* XPM */
static char *recordcircle[] = {
/* Values */
"24 24 77 1",
/* Colors */
"  c #848689",
". c #929496",
"+ c #d1d2d3",
"@ c #7f8184",
"# c #292d32",
"$ c #fefefe",
"% c #d6d7d8",
"& c #9b9d9f",
"= c #56595d",
"- c white",
"; c #e7e7e8",
"> c #65676b",
", c #d7d7d8",
"' c #53565a",
") c #e0e1e1",
"! c #393d41",
"~ c #7e8083",
"{ c #999b9d",
"] c #fcfcfc",
"^ c #838588",
"( c #e2e2e3",
"_ c #7b7e81",
": c #2a2e33",
"< c #f4f4f5",
"[ c #75777a",
"} c #3f4247",
"| c #c3c4c5",
"1 c #949698",
"2 c #46494d",
"3 c #6a6d71",
"4 c #696c6f",
"5 c #3b3f44",
"6 c #e1e1e2",
"7 c #64676a",
"8 c #404449",
"9 c #c8c9ca",
"0 c #dadbdc",
"a c #3e4246",
"b c #7d7f82",
"c c #949699",
"d c #626569",
"e c #66696d",
"f c #9ea0a3",
"g c #fbfbfb",
"h c #a3a4a7",
"i c #6a6c70",
"j c #383c40",
"k c #7c7f82",
"l c #808386",
"m c #a4a5a7",
"n c #2c2f34",
"o c #9c9ea0",
"p c #7a7d80",
"q c #3d4145",
"r c #939597",
"s c #a5a7a9",
"t c #3b3e43",
"u c #85888a",
"v c #c2c3c4",
"w c #464a4e",
"x c #d5d6d7",
"y c #9a9c9f",
"z c #e2e3e4",
"A c #8a8d8f",
"B c #373b40",
"C c #f3f3f4",
"D c #e6e6e7",
"E c #5b5e62",
"F c #636669",
"G c #b6b7b9",
"H c #c3c5c6",
"I c #54575b",
"J c #2b2f34",
"K c #a4a6a8",
"L c #75787b",
"M c #7f8285",
"N c #e5e5e6",
/* Pixels */
"------------------------",
"--------;hMi4@mN--------",
"-------u:#a'Ia##Fx------",
"-------Goz----zo5:.$----",
"----------------<b#[$---",
"---fm-------------y#r---",
"--+nA--------------bJ%--",
"--d}<----vdBj7|----CtF--",
"-):&----.#w  w#1----&:D-",
"-s#N---v#@]--]b#|---(#K-",
"-p8----Fw]----g27----qM-",
"-e=----B ------^j----Ii-",
"-iI----B ------9M----'3-",
"-@a----Fw]-----------qM-",
"-m#z---|#bg---------6#s-",
"-N#o----1#2^^E0-----y:D-",
"--d5<----H>!B7N----Ct7--",
"--xJ~--------------_J,--",
"---r#y------------{#1---",
"---$[#kC--------C_#L$---",
"----$.Jt&(----6ytJc$----",
"------%7##qI'q##>,------",
"--------DKMiils;--------",
"------------------------"
};
