/* XPM */
static char *osm[] = {
/* Values */
"24 24 135 2",
/* Colors */
"   c None",
".  c #6983bf",
".. c #4f70b6",
".+ c #db3a34",
".@ c #a6b767",
".# c #5575b8",
".$ c #ebb728",
".% c #df5853",
".& c #e7b949",
".= c #dacfc4",
".- c #e9b939",
".; c #db3f29",
".> c #8b8f46",
"., c #61a74f",
".' c #62a850",
".) c #5fa850",
".! c #c0a77e",
".~ c #5a76b7",
".{ c #e8bc4b",
".] c #ddccb3",
".^ c #6ea04c",
".( c #8b8944",
"._ c #ebb626",
".: c #e38327",
".< c #da3729",
".[ c #f4cdcc",
".} c #fffdfd",
".| c #eab836",
".1 c #60a850",
".2 c #f5d1d0",
".3 c #e0c699",
".4 c #94a74e",
".5 c #60a84f",
".6 c #e7b830",
".7 c #6fae65",
".8 c #627ebd",
".9 c #5a78ba",
".0 c #da352e",
".a c #e8a126",
".b c #e16f6c",
".c c #8a8e45",
".d c #64a64e",
".e c #d3d8ee",
".f c #e8b72d",
".g c #e1b83a",
".h c #637fbe",
".i c #bfa57b",
".j c #ebb72a",
".k c #5f76b2",
".l c #fdf6f6",
".m c #c84f31",
".n c #dad0c9",
".o c #62a951",
".p c #af9d89",
".q c #e9b630",
".r c #d3d8ed",
".s c #d93229",
".t c #6bac61",
".u c #ddcbaf",
".v c #e0912f",
".w c #eab426",
".x c #c65131",
".y c #5c79ba",
".z c #d5b05e",
".A c #df5e5a",
".B c #e9bb46",
".C c #aa743c",
".D c #6aac5f",
".E c #60a74f",
".F c #ebb729",
".G c #e69827",
".H c #e37a76",
".I c #da3129",
".J c #859348",
".K c #e0c69a",
".L c #5d7abb",
".M c #5474b8",
".N c #e99e9c",
".O c #5fa84f",
".P c #6aad5f",
".Q c #5d7bbc",
".R c #e17a28",
".S c #62a74e",
".T c #ae713b",
".U c #e17827",
".V c #de5550",
".W c #ca4b30",
".X c #60a851",
".Y c #eab937",
".Z c #e79927",
".` c #da342c",
"+  c #edbcbb",
"+. c #e69492",
"++ c #6ba14d",
"+@ c #6cad62",
"+# c #eab72c",
"+$ c #dad0c7",
"+% c #e17528",
"+& c white",
"+= c #ce6a37",
"+- c #67ab5a",
"+; c #d7382a",
"+> c #61a952",
"+, c #d8d2d3",
"+' c #e9a926",
"+) c #fcf2f2",
"+! c #dc4729",
"+~ c #d4d7eb",
"+{ c #e8b62c",
"+] c #69ac5d",
"+^ c #e6be5b",
"+( c #5573b4",
"+_ c #e7bc55",
"+: c #5974b4",
"+< c #ebb726",
"+[ c #ebb82d",
"+} c #617ebd",
"+| c #e8bc53",
"+1 c #8fae51",
"+2 c #e1b93e",
"+3 c #5a79ba",
"+4 c #da3629",
"+5 c #db3932",
"+6 c #dc4728",
"+7 c #da342a",
"+8 c #a5b250",
"+9 c #db3929",
"+0 c #e9ae26",
"+a c #d53a2b",
"+b c #8fae50",
"+c c #5071b6",
"+d c #e9ba46",
"+e c #ebb526",
"+f c #df6927",
"+g c #6eae66",
/* Pixels */
"                  .y.8.L.Q.h+}                  ",
"            . .9+c............+c.M.h            ",
"          +3+c....................+:.!          ",
"        .#......................+:.i+#.F+^      ",
"      .~......................+:.i+#+<+<.j      ",
"    .&.p+(..................+:.i+#+<+<+<+<+_    ",
"  .{.$.q.p+(..............+:.i+#+<+<+<+<+|+,.e  ",
"  .Y+<+<.q.p+(..........+:.i+#+<+<+<+<+|+,.e.e  ",
"  .F+<+<+<.q.p+(......+:.i+#+<+<+<+<+|+,.e.e.e.e",
".]+d+<+<+<+<.q.p+(..+:.i+#+<+<+<+<.j.u.r.e.e.e.e",
".r.n+d+<+<+<+<.q.p.k.i+#._+'.Z.a+e+<+d.n.r.e.e.e",
".e.r.n+d+<+<+<+<.q.z+#+e.:.;+4+9+f+0+<+d.n.r.e.e",
".e.e.r.n+d+<+<+<+<+<+<.G.<.A.N.H.`.U._+<+d.n.r.e",
".e.e.e.r.n+d+<+<+<+<._.R+5.[.}+).V+6.w+<+<+d.n.r",
".e.e.e.e.r+$.|+<+<+<._+%.+.2+&.l.%+!.w+<+<+<+d.=",
"  .e.e.e+~.3.j+<+<+<+<.v+7.b+ +..0+=+{+<+<+<+<.B",
"  .e.e+~.3+[+<+<+<+<.g.4.m.I.I.I+a.J+8.f+<+<.F  ",
"  .e+~.3+[+<+<+<+<.g+b.5.>+;.I.s.C.,.'+8.f+<.-  ",
"    .K+[+<+<+<+<.g+b.O.O.S.T.s.x++.O.O.'+8.6    ",
"      .F+<+<+<.g+b.O.O.O.O.^.W.c.O.O.O.O.o.@    ",
"      +^.j+<.g+b.O.O.O.O.O.5.(.d.O.O.O.1.7      ",
"          +2+1.O.O.O.O.O.O.O.E.O.O.O.X+g        ",
"            .P+>.O.O.O.O.O.O.O.O.X+-            ",
"                .D+@.).O.O.)+].t                "
};
