/* XPM */
static char *magt[] = {
/* Values */
"24 21 108 2",
/* Colors */
"   c None",
".  c #a4bc3a",
".. c #72777d",
".+ c #cdcfd1",
".@ c #a0b53d",
".# c #696e75",
".$ c #8fa248",
".% c #6f737a",
".& c #758350",
".= c #656a71",
".- c #9c9fa3",
".; c #646970",
".> c #61656d",
"., c #757980",
".' c #666f60",
".) c #777a81",
".! c #5c6168",
".~ c #63686f",
".{ c #62666e",
".] c #656a72",
".^ c #889276",
".( c #91a24e",
"._ c #696d74",
".: c #9a9da3",
".< c #71757b",
".[ c #939699",
".} c #767a81",
".| c #8f9398",
".1 c #81858c",
".2 c #555c64",
".3 c #6d737a",
".4 c #71757d",
".5 c #929599",
".6 c #97a670",
".7 c #8f9c79",
".8 c #535961",
".9 c #71796b",
".0 c #5f646c",
".a c #9db068",
".b c #a6bd3a",
".c c #9a9ca1",
".d c #636870",
".e c #8b8e92",
".f c #93969b",
".g c #676b73",
".h c #a2bb3b",
".i c #7e9053",
".j c #7e8284",
".k c #525760",
".l c #777c82",
".m c #5a6068",
".n c #6b7278",
".o c #74797f",
".p c #70757c",
".q c #596068",
".r c #575c64",
".s c #cacbce",
".t c #4f555e",
".u c #545a63",
".v c #9fb260",
".w c #6a6e75",
".x c #646971",
".y c #666a71",
".z c #696e76",
".A c #60656c",
".B c #565c64",
".C c #9caf60",
".D c #646d73",
".E c #6c7279",
".F c #686b71",
".G c #898d91",
".H c #dddee0",
".I c #575e66",
".J c #888a90",
".K c #50565f",
".L c #4b515b",
".M c #72767c",
".N c #d1d2d4",
".O c #d4d4d6",
".P c #5a5f67",
".Q c #898c91",
".R c #5c616a",
".S c #899277",
".T c #879275",
".U c #515961",
".V c #778558",
".W c #83868b",
".X c #86954f",
".Y c #6b765b",
".Z c #71757c",
".` c #a5bd3e",
"+  c #a4ba3a",
"+. c #5c6169",
"++ c #808389",
"+@ c #4e545d",
"+# c #838d7a",
"+$ c #626b72",
"+% c #555a62",
"+& c #84888d",
"+= c #6e7279",
"+- c #8b8e93",
"+; c #686c74",
"+> c #4f555d",
"+, c #919599",
"+' c #94969b",
"+) c #666b72",
"+! c #a6bd59",
"+~ c #6b747a",
/* Pixels */
"                                                ",
"                                                ",
"                                                ",
"                                                ",
"                  .d.R.z                        ",
"                  +)    .t                      ",
"                  .d      +;                    ",
"                  .A      .|                .T  ",
"                  .Z.!    .B    .z.%    .X.@.b.S",
"                      +>.P  .#    .9.&+ .h+!.6+=",
"                      .,.0    .'.(. .i.a+#._    ",
"              .~.u.;      .Y.$.`.C.^+..1        ",
"          .K.U.2+$.I.A++.V.v.7.j.p              ",
"      .L.D          .E.w.F    +%.x      .>      ",
"  .k.q            +~.y.%    .r.{.~.l+&+;        ",
"  .m            .n.).J    .]                    ",
".#          .3.M+,.e        .4                  ",
"  ...5+-.c+'.Q.f          .=._                  ",
"    .}.:.g                  .8  .<              ",
"                          ._.G.N.+.W.[          ",
"                                .o+@.-.s.O.H    "
};
