/* XPM */
static char *new[] = {
/* columns rows colors chars-per-pixel */
"18 18 3 1",
"  c black",
". c #808080",
"X c gray75",
"XXXXXXXXXXXXXXXXXX",
"XXXXXXXXXXXXXXXXXX",
"XXXXXXXX  XXXXXXXX",
"XXXXXXXX  XXXXXXXX",
"XXXXXXXX  XXXXXXXX",
"XXXXXXXX  XXXXXXXX",
"XXXXXXXX  XXXXXXXX",
"XXXXXXXX  XXXXXXXX",
"XX              XX",
"XX              XX",
"XXXXXXXX  XXXXXXXX",
"XXXXXXXX  XXXXXXXX",
"XXXXXXXX  XXXXXXXX",
"XXXXXXXX  XXXXXXXX",
"XXXXXXXX  XXXXXXXX",
"XXXXXXXX  XXXXXXXX",
"XXXXXXXXXXXXXXXXXX",
"XXXXXXXXXXXXXXXXXX"};
