/* XPM */
static char *right_arrow[] = {
/* columns rows colors chars-per-pixel */
"18 18 3 1",
"  c black",
". c #808080",
"X c gray75",
"XXXXXXXXXXXXXXXXXX",
"XXXXXXXXXXXXXXXXXX",
"XXXX..  XXXXXXXXXX",
"XXXX..  XXXXXXXXXX",
"XXXXXX..  XXXXXXXX",
"XXXXXX..  XXXXXXXX",
"XXXXXXXX..  XXXXXX",
"XXXXXXXX..  XXXXXX",
"XXXXXXXXXX..  XXXX",
"XXXXXXXXXX..  XXXX",
"XXXXXXXX..  XXXXXX",
"XXXXXXXX..  XXXXXX",
"XXXXXX..  XXXXXXXX",
"XXXXXX..  XXXXXXXX",
"XXXX..  XXXXXXXXXX",
"XXXX..  XXXXXXXXXX",
"XXXXXXXXXXXXXXXXXX",
"XXXXXXXXXXXXXXXXXX"};
